<?xml version="1.0" standalone="no"?>
<!DOCTYPE svg PUBLIC "-//W3C//DTD SVG 1.1//EN" "http://www.w3.org/Graphics/SVG/1.1/DTD/svg11.dtd" >
<svg xmlns="http://www.w3.org/2000/svg">
<metadata>
Created by FontPrep 20130207 at Wed Oct 15 09:27:01 2014
 By Marnu
Digitised data (c) copyright Agfa Monotype Ltd 2004. All Rights Reserved.
</metadata>
<defs>
<font id="9228ea481428e89c516216a8edaa4fb1" horiz-adv-x='1024' >
  <font-face 
    font-family="ExpertSans-Light"
    font-weight="400"
    font-stretch="normal"
    units-per-em="2048"
    panose-1="2 11 4 3 3 1 3 2 2 4"
    ascent="1638"
    descent="-410"
    x-height="1038"
    cap-height="1446"
    bbox="-307 -512 2560 1962"
    underline-thickness="86"
    underline-position="-119"
    unicode-range="U+0020-FB02"
  />
<missing-glyph horiz-adv-x="2048" 
d="M384 128h1280v1280h-1280v-1280zM256 0v1536h1536v-1536h-1536z" />
    <glyph glyph-name=".notdef" horiz-adv-x="2048" 
d="M384 128h1280v1280h-1280v-1280zM256 0v1536h1536v-1536h-1536z" />
    <glyph glyph-name=".null" horiz-adv-x="0" 
 />
    <glyph glyph-name="nonmarkingreturn" horiz-adv-x="502" 
 />
    <glyph glyph-name="space" unicode=" " horiz-adv-x="502" 
 />
    <glyph glyph-name="exclam" unicode="!" horiz-adv-x="469" 
d="M234 150q36 0 62 -26t26 -61t-26.5 -61.5t-61.5 -26.5t-61 26.5t-26 62.5t25.5 61t61.5 25zM287 389l-117 -33v1057l117 33v-1057z" />
    <glyph glyph-name="quotedbl" unicode="&#x22;" horiz-adv-x="666" 
d="M246 1446l-19 -492h-86l-18 492h123zM543 1446l-19 -492h-86l-18 492h123z" />
    <glyph glyph-name="numbersign" unicode="#" horiz-adv-x="1303" 
d="M879 930h-369l-84 -418h369zM1208 408h-325l-86 -408h-111l90 408h-375l-84 -408h-108l84 408h-199v104h221l88 418h-309v102h328l88 414h108l-90 -414h373l86 414h109l-90 -414h202v-102h-219l-86 -418h305v-104z" />
    <glyph glyph-name="dollar" unicode="$" horiz-adv-x="1141" 
d="M907 377q0 71 -48 129t-232 151v-514q280 20 280 234zM258 1098q0 -78 47.5 -130t179.5 -114l35 -16v454q-127 -9 -194.5 -62.5t-67.5 -131.5zM1028 391q0 -324 -401 -350v-184h-107v184q-196 7 -397 88l39 104q171 -79 358 -90v566q-261 126 -320 202.5t-59 184.5
t92 195t287 102v149h107v-147q180 -5 364 -76l-39 -102q-174 74 -325 77v-510q247 -115 324 -200.5t77 -192.5z" />
    <glyph glyph-name="percent" unicode="%" horiz-adv-x="1849" 
d="M1418 63q107 0 167 80.5t60 220.5t-60.5 224t-168.5 84t-167 -81t-59 -221t60.5 -223.5t167.5 -83.5zM1418 760q148 0 240.5 -106t92.5 -287t-93.5 -286.5t-242.5 -105.5t-240.5 102.5t-91.5 282.5t93.5 290t241.5 110zM431 774q107 0 166.5 80t59.5 220t-59.5 224
t-167.5 84t-167.5 -80.5t-59.5 -220.5t60.5 -223.5t167.5 -83.5zM432 1470q148 0 240 -105t92 -287t-93.5 -287t-242.5 -105t-240.5 103t-91.5 283t94 289t242 109zM1397 1470l-840 -1495h-102l839 1495h103z" />
    <glyph glyph-name="ampersand" unicode="&#x26;" horiz-adv-x="1350" 
d="M211 316q0 -106 95 -172t247 -66q237 0 377 135l-436 496q-170 -125 -226.5 -206t-56.5 -187zM815 1197q0 85 -63.5 129t-171.5 44t-174 -52.5t-66 -139.5q0 -57 18 -108t160 -214q157 111 227 183.5t70 157.5zM549 -25q-223 0 -343 93.5t-120 267.5q0 127 74 223
t262 232q-115 119 -159 206t-44 179q0 125 97.5 209.5t267.5 84.5t261 -72t91 -179t-50 -187t-296 -254l416 -473q84 128 84 324q0 50 -9 86l103 37q14 -57 14 -123q0 -241 -123 -404l199 -225h-158l-117 135q-172 -160 -450 -160z" />
    <glyph glyph-name="quotesingle" unicode="'" horiz-adv-x="369" 
d="M246 1446l-19 -492h-86l-18 492h123z" />
    <glyph glyph-name="parenleft" unicode="(" horiz-adv-x="756" 
d="M182 556q0 532 373 1003h94q-334 -513 -334 -1005t334 -1005h-94q-373 475 -373 1007z" />
    <glyph glyph-name="parenright" unicode=")" horiz-adv-x="756" 
d="M604 556q0 -532 -373 -1007h-96q336 515 336 1004t-336 1006h96q373 -471 373 -1003z" />
    <glyph glyph-name="asterisk" unicode="*" horiz-adv-x="1001" 
d="M870 1010l-53 -95l-278 181l12 -332h-105l19 323l-281 -169l-53 94l295 147l-293 156l53 94l275 -184l-10 334h102l-14 -332l278 178l53 -94l-292 -148z" />
    <glyph glyph-name="plus" unicode="+" 
d="M918 674h-375v-375h-99v375h-374v98h374v375h99v-375h375v-98z" />
    <glyph glyph-name="comma" unicode="," horiz-adv-x="475" 
d="M145 76q0 38 26.5 65t68.5 27t67 -31t25 -86q0 -177 -168 -330l-45 43q112 111 121 222q-44 2 -69.5 27t-25.5 63z" />
    <glyph glyph-name="hyphen" unicode="-" horiz-adv-x="731" 
d="M629 479h-525v103h525v-103z" />
    <glyph glyph-name="period" unicode="." horiz-adv-x="475" 
d="M238 168q38 0 65 -27t27 -65t-27 -65t-65 -27t-65.5 27t-27.5 65t27.5 65t65.5 27z" />
    <glyph glyph-name="slash" unicode="/" horiz-adv-x="936" 
d="M885 1559l-703 -1584h-116l702 1584h117z" />
    <glyph glyph-name="zero" unicode="0" horiz-adv-x="1141" 
d="M584 1366q-361 0 -361 -690q0 -282 90.5 -439t243.5 -157q361 0 361 663q0 300 -88.5 461.5t-245.5 161.5zM582 1470q230 0 346 -199.5t116 -506.5q0 -379 -123 -584t-376 -205q-212 0 -330.5 198t-118.5 550t128 549.5t358 197.5z" />
    <glyph glyph-name="one" unicode="1" horiz-adv-x="1141" 
d="M616 0h-118v1333l-281 -112l-20 102l368 147h51v-1470z" />
    <glyph glyph-name="two" unicode="2" horiz-adv-x="1141" 
d="M852 1114q0 256 -299 256q-172 0 -365 -131l-53 94q205 137 417 137t320.5 -92t108.5 -252t-97.5 -330t-600.5 -687h731v-109h-910v66q369 397 492.5 538t189.5 262t66 248z" />
    <glyph glyph-name="three" unicode="3" horiz-adv-x="1141" 
d="M1014 410q0 -184 -139 -309.5t-414 -125.5q-177 0 -357 72l43 109q161 -74 343 -74t287.5 90t105.5 240t-101.5 224.5t-330.5 74.5h-154l33 100h143q165 0 263 85.5t98 215.5q0 254 -295 254q-191 0 -361 -111l-55 97q183 118 403 118t327.5 -91t107.5 -253
q0 -237 -244 -354q136 -29 216.5 -124t80.5 -238z" />
    <glyph glyph-name="four" unicode="4" horiz-adv-x="1141" 
d="M723 569v684l-539 -684h539zM1059 463h-219v-463h-117v463h-670v102l713 905h74v-901h219v-106z" />
    <glyph glyph-name="five" unicode="5" horiz-adv-x="1141" 
d="M528 897q216 0 346 -116.5t130 -330.5t-133 -344.5t-406 -130.5q-82 0 -189.5 21.5t-175.5 48.5l41 105q166 -70 349 -70t281.5 96t98.5 278t-102.5 262.5t-263.5 80.5t-309 -41l57 690h719l-37 -107h-582l-37 -460q87 18 213 18z" />
    <glyph glyph-name="six" unicode="6" horiz-adv-x="1141" 
d="M221 553q0 -216 99.5 -344.5t261.5 -128.5t250 98t88 266t-77 247t-235 79q-187 0 -387 -186v-31zM637 872q189 0 300.5 -113t111.5 -319t-125 -335.5t-345 -129.5t-352.5 173.5t-132.5 439.5q0 393 161 637.5t460 244.5q124 0 250 -34l-33 -107q-105 35 -223 35
q-215 0 -338.5 -169t-145.5 -493q186 170 412 170z" />
    <glyph glyph-name="seven" unicode="7" horiz-adv-x="1141" 
d="M1053 1446v-84l-637 -1362h-135l647 1339h-805l37 107h893z" />
    <glyph glyph-name="eight" unicode="8" horiz-adv-x="1141" 
d="M231 353q0 -121 89 -196t246 -75t252 76t95 202t-97.5 198t-159.5 105t-115 64q-161 -83 -235.5 -168t-74.5 -206zM860 1157q0 98 -78 153.5t-208 55.5t-211.5 -59.5t-81.5 -150.5t58.5 -159.5t231.5 -158.5q160 78 224.5 149.5t64.5 169.5zM1038 365
q0 -179 -136.5 -284.5t-336.5 -105.5t-330.5 103t-130.5 274q0 138 83.5 240.5t258.5 189.5q-157 86 -222.5 170t-65.5 191q0 148 118.5 237.5t301.5 89.5t294 -82t111 -231q0 -115 -72 -202t-239 -173q212 -114 289 -203.5t77 -213.5z" />
    <glyph glyph-name="nine" unicode="9" horiz-adv-x="1141" 
d="M553 1366q-150 0 -238 -98t-88 -266t77 -247t235 -79q187 0 387 186q-10 504 -373 504zM510 573q-189 0 -300.5 113.5t-111.5 317.5t125.5 335t351.5 131t352 -163t126 -449q0 -411 -156 -647t-455 -236q-148 0 -286 43l32 107q135 -43 250 -43q438 0 484 661
q-186 -170 -412 -170z" />
    <glyph glyph-name="colon" unicode=":" horiz-adv-x="475" 
d="M238 168q38 0 65 -27t27 -65t-27 -65t-65 -27t-65.5 27t-27.5 65t27.5 65t65.5 27zM238 879q38 0 65 -27.5t27 -65.5t-27 -65t-65 -27t-65.5 27t-27.5 65t27.5 65.5t65.5 27.5z" />
    <glyph glyph-name="semicolon" unicode=";" horiz-adv-x="475" 
d="M139 76q0 38 26 65t68 27t67.5 -31t25.5 -86q0 -177 -168 -330l-45 43q112 111 120 222q-43 2 -68.5 27t-25.5 63zM238 879q38 0 65 -27.5t27 -65.5t-27 -65t-65 -27t-65.5 27t-27.5 65t27.5 65.5t65.5 27.5z" />
    <glyph glyph-name="less" unicode="&#x3c;" 
d="M918 301l-848 354v138l848 352v-105l-766 -317l766 -320v-102z" />
    <glyph glyph-name="equal" unicode="=" 
d="M918 498h-848v98h848v-98zM918 852h-848v98h848v-98z" />
    <glyph glyph-name="greater" unicode="&#x3e;" 
d="M918 655l-848 -354v102l766 320l-766 317v105l848 -352v-138z" />
    <glyph glyph-name="question" unicode="?" horiz-adv-x="899" 
d="M304 166q38 0 64.5 -26t26.5 -64t-26.5 -65t-64.5 -27t-64.5 27t-26.5 65t26.5 64t64.5 26zM408 1470q194 0 298.5 -96t104.5 -280t-117 -308.5t-338 -148.5v-234l-114 -30v366h51q184 0 288.5 95.5t104.5 244.5t-67.5 220t-226.5 71t-308 -92l-47 90q177 102 371 102z
" />
    <glyph glyph-name="at" unicode="@" horiz-adv-x="1919" 
d="M983 954q-182 0 -297 -163t-115 -377q0 -144 63.5 -229t176.5 -85t207 77t106 171l74 549q-89 57 -215 57zM979 -451q-376 0 -630.5 247t-254.5 640q0 303 120 540t340.5 365.5t508.5 128.5q337 0 542 -199t205 -525t-152.5 -536t-371.5 -210q-184 0 -188 125
q-132 -125 -297 -125t-257.5 112t-92.5 296q0 256 150 450.5t384 194.5q127 0 229 -52l125 33l-110 -823q-2 -10 -2 -33q0 -76 88 -76q151 0 270 187.5t119 460.5t-170 446.5t-471 173.5q-395 0 -628.5 -256.5t-233.5 -677.5q0 -350 227 -569t563 -219q445 0 729 379l76 -62
q-298 -416 -817 -416z" />
    <glyph glyph-name="A" unicode="A" horiz-adv-x="1239" 
d="M852 621l-229 628l-236 -628h465zM1208 0h-129l-188 518h-543l-194 -518h-123l553 1448l84 22z" />
    <glyph glyph-name="B" unicode="B" horiz-adv-x="1135" 
d="M928 430q0 311 -373 311q-116 0 -256 -20v-627q88 -8 180 -8q209 0 329 91t120 253zM848 1149q0 113 -82 163t-268 50q-62 0 -199 -10v-531q322 16 435.5 99t113.5 229zM1063 455q0 -226 -161 -346.5t-435 -120.5q-165 0 -295 12v1446q196 12 326 12q247 0 362 -73.5
t115 -229.5q0 -109 -67.5 -200.5t-192.5 -143.5q153 -18 250.5 -115.5t97.5 -240.5z" />
    <glyph glyph-name="C" unicode="C" horiz-adv-x="1260" 
d="M111 688q0 391 185.5 586.5t510.5 195.5q199 0 375 -81l-43 -103q-163 80 -346 80q-265 0 -406 -167t-141 -479t134 -474t384 -162q192 0 379 115l55 -97q-188 -127 -470 -127t-449.5 192.5t-167.5 520.5z" />
    <glyph glyph-name="D" unicode="D" horiz-adv-x="1382" 
d="M471 92q666 0 666 653q0 310 -152.5 460.5t-478.5 150.5q-123 0 -207 -8v-1246q94 -10 172 -10zM547 1458q346 0 535.5 -177.5t189.5 -508.5q0 -395 -200.5 -589.5t-625.5 -194.5q-134 0 -274 12v1446q168 12 375 12z" />
    <glyph glyph-name="E" unicode="E" horiz-adv-x="1073" 
d="M981 0h-809v1446h797l-37 -105h-633v-524h555l-37 -102h-518v-609h682v-106z" />
    <glyph glyph-name="F" unicode="F" horiz-adv-x="1049" 
d="M299 1341v-524h559l-37 -102h-522v-715h-127v1446h807l-35 -105h-645z" />
    <glyph glyph-name="G" unicode="G" horiz-adv-x="1430" 
d="M746 -25q-296 0 -465.5 189.5t-169.5 521.5q0 392 188.5 588t511.5 196q221 0 397 -81l-45 -109q-181 86 -360 86q-269 0 -413 -166.5t-144 -479.5t138.5 -476.5t393.5 -163.5q178 0 381 102v436l127 35v-522q-244 -156 -540 -156z" />
    <glyph glyph-name="H" unicode="H" horiz-adv-x="1397" 
d="M1225 0h-127v713h-799v-713h-127v1446h127v-627h799v627h127v-1446z" />
    <glyph glyph-name="I" unicode="I" horiz-adv-x="475" 
d="M301 0h-127v1446h127v-1446z" />
    <glyph glyph-name="J" unicode="J" horiz-adv-x="475" 
d="M301 172q0 -192 -81.5 -280t-209.5 -144l-45 100q114 52 161.5 111.5t47.5 235.5v1251h127v-1274z" />
    <glyph glyph-name="K" unicode="K" horiz-adv-x="1114" 
d="M299 0h-127v1446h127v-621l614 621h158l-637 -641l660 -805h-162l-633 780v-780z" />
    <glyph glyph-name="L" unicode="L" horiz-adv-x="1042" 
d="M981 0h-809v1446h127v-1335h682v-111z" />
    <glyph glyph-name="M" unicode="M" horiz-adv-x="1817" 
d="M1669 0h-123l-112 1313l-490 -1297l-108 -28l-469 1319l-113 -1307h-113l121 1423l176 47l453 -1298l471 1251l178 47z" />
    <glyph glyph-name="N" unicode="N" horiz-adv-x="1364" 
d="M285 0h-115v1430l158 40l751 -1298v1274h115v-1436l-131 -35l-778 1340v-1315z" />
    <glyph glyph-name="O" unicode="O" horiz-adv-x="1493" 
d="M738 80q236 0 372.5 180t136.5 472t-125 463t-365 171t-375.5 -182t-135.5 -477t128 -461t364 -166zM757 1470q302 0 463.5 -193t161.5 -530t-176 -554.5t-472 -217.5t-459.5 191.5t-163.5 527.5t172 556t474 220z" />
    <glyph glyph-name="P" unicode="P" horiz-adv-x="1128" 
d="M922 1083q0 281 -386 281q-191 0 -237 -4v-647q295 6 459 102t164 268zM512 1458q285 0 415 -90.5t130 -269.5q0 -226 -197 -351.5t-561 -132.5v-614h-127v1448q151 10 340 10z" />
    <glyph glyph-name="Q" unicode="Q" horiz-adv-x="1493" 
d="M737 80q236 0 373 180t137 472t-125 463t-365 171t-375.5 -182t-135.5 -478t127.5 -461t363.5 -165zM1321 -215q-209 0 -451 205q-78 -15 -143 -15q-289 0 -452.5 191.5t-163.5 531.5t176.5 556t474.5 216t459 -193t161 -519q0 -258 -100.5 -451.5t-288.5 -277.5
q187 -138 355 -138q17 0 57 5v-105q-38 -6 -84 -6z" />
    <glyph glyph-name="R" unicode="R" horiz-adv-x="1169" 
d="M542 1362q-115 0 -243 -6v-578q309 8 456.5 82t147.5 247q0 255 -361 255zM1030 1110q0 -301 -381 -391l469 -719h-151l-447 698q-96 -14 -221 -18v-680h-127v1448q144 10 326 10q298 0 415 -89.5t117 -258.5z" />
    <glyph glyph-name="S" unicode="S" horiz-adv-x="1126" 
d="M594 1366q-170 0 -257 -68t-87 -162t36.5 -144.5t95 -82t280.5 -127.5t293 -185.5t71 -211.5q0 -190 -132 -300t-363 -110t-433 82l43 113q189 -88 375 -88t284.5 75.5t98.5 219.5t-96 196.5t-271 126.5q-261 108 -333 200t-72 204t85.5 239t401.5 127q184 0 361 -71
l-39 -109q-172 76 -342 76z" />
    <glyph glyph-name="T" unicode="T" horiz-adv-x="1176" 
d="M651 1341v-1341h-127v1341h-485l35 105h1061l-35 -105h-449z" />
    <glyph glyph-name="U" unicode="U" horiz-adv-x="1360" 
d="M1194 567q0 -308 -120 -450t-394 -142t-394 142.5t-120 449.5v879h127v-871q0 -277 94 -386t293 -109t293 108.5t94 384.5v873h127v-879z" />
    <glyph glyph-name="V" unicode="V" horiz-adv-x="1245" 
d="M1202 1446l-514 -1436l-131 -35l-512 1471h131l447 -1313l458 1313h121z" />
    <glyph glyph-name="W" unicode="W" horiz-adv-x="1890" 
d="M1860 1446l-453 -1430l-152 -41l-325 1219l-338 -1176l-156 -43l-401 1471h127l354 -1313l381 1315l82 22l352 -1339l414 1315h115z" />
    <glyph glyph-name="X" unicode="X" horiz-adv-x="1280" 
d="M1223 0h-144l-434 662l-452 -662h-132l517 758l-453 688h141l385 -582l396 582h133l-465 -678z" />
    <glyph glyph-name="Y" unicode="Y" horiz-adv-x="1171" 
d="M627 0h-127v666l-449 780h135l389 -676l412 676h133l-493 -793v-653z" />
    <glyph glyph-name="Z" unicode="Z" horiz-adv-x="1198" 
d="M106 0v84l805 1257h-790l39 105h925v-51l-823 -1289h834l-37 -106h-953z" />
    <glyph glyph-name="bracketleft" unicode="[" horiz-adv-x="827" 
d="M700 -426h-450v1958h450v-94h-327v-1770h327v-94z" />
    <glyph glyph-name="backslash" unicode="\" horiz-adv-x="936" 
d="M870 -25h-116l-703 1584h117z" />
    <glyph glyph-name="bracketright" unicode="]" horiz-adv-x="827" 
d="M578 -426h-451v94h328v1770h-328v94h451v-1958z" />
    <glyph glyph-name="asciicircum" unicode="^" 
d="M934 725h-105l-333 602l-336 -602h-105l402 721h78z" />
    <glyph glyph-name="underscore" unicode="_" horiz-adv-x="1024" 
d="M1036 -248h-1048v86h1048v-86z" />
    <glyph glyph-name="grave" unicode="`" horiz-adv-x="799" 
d="M575 1196h-112l-336 285h174z" />
    <glyph glyph-name="a" unicode="a" horiz-adv-x="1030" 
d="M412 72q152 0 338 182v313l-256 -51q-277 -57 -277 -262q0 -86 50.5 -134t144.5 -48zM393 -25q-140 0 -220.5 76.5t-80.5 204.5q0 178 128 250.5t255 97.5l275 53v50q0 135 -55 196.5t-195 61.5t-305 -119l-54 88q182 129 371 129t271.5 -85.5t82.5 -260.5v-486
q0 -120 54 -213l-111 -30q-44 73 -53 159q-174 -172 -363 -172z" />
    <glyph glyph-name="b" unicode="b" horiz-adv-x="1128" 
d="M504 88q190 0 295.5 114t105.5 323t-81.5 324.5t-237.5 115.5t-314 -166v-670q104 -41 232 -41zM614 1063q194 0 305 -141t111 -390t-137.5 -396.5t-357.5 -147.5q-164 0 -271 41l-108 -29v1526l116 33v-639q148 143 342 143z" />
    <glyph glyph-name="c" unicode="c" horiz-adv-x="977" 
d="M98 487q0 297 138 436.5t374 139.5q140 0 281 -66l-45 -96q-134 62 -246 62q-377 0 -377 -461q0 -200 87 -312t263 -112q134 0 281 90l51 -90q-153 -103 -356 -103t-327 137.5t-124 374.5z" />
    <glyph glyph-name="d" unicode="d" horiz-adv-x="1139" 
d="M856 383v459q-112 121 -280 121t-260.5 -119.5t-92.5 -327.5t85.5 -324t227.5 -116t231 84.5t89 222.5zM536 -25q-194 0 -316 145.5t-122 395.5t131.5 398.5t327.5 148.5q101 0 167.5 -23t131.5 -77v563l117 33v-1336q0 -107 53 -205l-111 -30q-33 48 -53 135
q-132 -148 -326 -148z" />
    <glyph glyph-name="e" unicode="e" horiz-adv-x="1030" 
d="M817 614v13q0 161 -68.5 249.5t-194.5 88.5t-212 -94.5t-111 -256.5h586zM932 520h-707q-2 -17 -2 -45q0 -186 92.5 -291.5t259.5 -105.5q130 0 275 90l51 -90q-155 -103 -336 -103q-221 0 -344 141.5t-123 385.5t127 402.5t319 158.5t290 -116.5t98 -315.5v-111z" />
    <glyph glyph-name="f" unicode="f" horiz-adv-x="647" 
d="M244 1174q0 385 325 385q96 0 181 -25l-31 -94q-73 24 -141 24q-121 0 -169.5 -72t-48.5 -237v-117h265l-33 -94h-232v-944h-116v944h-205l35 94h170v136z" />
    <glyph glyph-name="g" unicode="g" horiz-adv-x="1128" 
d="M612 963q-389 0 -389 -329t82.5 -437.5t222.5 -108.5t233 79t93 165v577q-125 54 -242 54zM971 63q0 -514 -441 -514q-177 0 -352 70l-8 121q165 -88 352 -88q332 0 332 379v96q-148 -139 -339 -139t-304 141.5t-113 390.5t136 396t360 147q143 0 274 -51l103 26v-975z
" />
    <glyph glyph-name="h" unicode="h" horiz-adv-x="1135" 
d="M653 1063q338 0 338 -369v-694h-117v651q0 164 -55.5 238t-173.5 74q-213 0 -373 -205v-758h-116v1526l116 33v-674q157 178 381 178z" />
    <glyph glyph-name="i" unicode="i" horiz-adv-x="432" 
d="M274 0h-116v1030l116 33v-1063zM217 1382q32 0 55 -23t23 -55t-23 -54.5t-55 -22.5t-56 22.5t-24 54.5t24 55t56 23z" />
    <glyph glyph-name="j" unicode="j" horiz-adv-x="432" 
d="M274 -18q0 -207 -54.5 -286t-168.5 -134l-59 82q96 45 131 111.5t35 242.5v1032l116 33v-1081zM217 1382q32 0 55 -23t23 -55t-23 -54.5t-55 -22.5t-56 22.5t-24 54.5t24 55t56 23z" />
    <glyph glyph-name="k" unicode="k" horiz-adv-x="997" 
d="M272 0h-116v1526l116 33v-938l478 417h157l-506 -442l519 -596h-154l-494 573v-573z" />
    <glyph glyph-name="l" unicode="l" horiz-adv-x="432" 
d="M274 0h-116v1526l116 33v-1559z" />
    <glyph glyph-name="m" unicode="m" horiz-adv-x="1767" 
d="M1303 1063q321 0 321 -361v-702h-117v659q0 160 -49.5 232t-165.5 72t-230 -91t-114 -198v-674h-117v670q0 146 -49.5 219.5t-165.5 73.5t-230 -91.5t-114 -197.5v-674h-116v1030l116 33v-180q149 180 355 180q244 0 301 -203q164 203 375 203z" />
    <glyph glyph-name="n" unicode="n" horiz-adv-x="1135" 
d="M653 1063q338 0 338 -369v-694h-117v651q0 164 -55 238t-184 74t-246 -89.5t-117 -209.5v-664h-116v1030l116 33v-178q155 178 381 178z" />
    <glyph glyph-name="o" unicode="o" horiz-adv-x="1102" 
d="M550 76q158 0 243.5 115t85.5 323t-80.5 328.5t-242.5 120.5t-247.5 -117.5t-85.5 -328.5t84.5 -326t242.5 -115zM554 1063q208 0 329 -142.5t121 -396.5t-125.5 -401.5t-331.5 -147.5t-327.5 141.5t-121.5 395.5t124 402.5t332 148.5z" />
    <glyph glyph-name="p" unicode="p" horiz-adv-x="1139" 
d="M283 336q0 -122 74.5 -191t201.5 -69q158 0 257 121t99 331t-82 322.5t-239 112.5t-311 -164v-463zM625 1063q194 0 304.5 -138.5t110.5 -388.5t-136 -405.5t-343 -155.5q-169 0 -278 109v-502l-117 -33v1266q0 142 -43 215l115 33q35 -65 38 -145q155 145 349 145z" />
    <glyph glyph-name="q" unicode="q" horiz-adv-x="1114" 
d="M856 397v512q-115 54 -279 54t-259 -115t-95 -326t91 -328.5t247 -117.5q110 0 202.5 85t92.5 236zM540 -25q-194 0 -318 141t-124 399t130 403t352 145q176 0 290 -51l103 26v-1456l-117 -33v572q-122 -146 -316 -146z" />
    <glyph glyph-name="r" unicode="r" horiz-adv-x="682" 
d="M578 952q-118 0 -212 -116t-94 -289v-547h-116v1030l116 33v-223q125 223 322 223q32 0 72 -8l-25 -111q-28 8 -63 8z" />
    <glyph glyph-name="s" unicode="s" horiz-adv-x="909" 
d="M428 72q264 0 264 190q0 62 -49.5 114t-219.5 122t-238 132t-68 180t94.5 185.5t264.5 67.5t300 -66l-39 -96q-137 68 -259 68t-181 -43t-59 -116t52 -112t178 -90t234.5 -111.5t108.5 -213.5q0 -152 -101.5 -230t-275.5 -78t-338 64l37 100q157 -67 295 -67z" />
    <glyph glyph-name="t" unicode="t" horiz-adv-x="727" 
d="M381 944v-686q0 -102 23.5 -145t95.5 -43t145 28l27 -88q-94 -35 -199 -35q-209 0 -209 254v715h-205l35 94h170v265l117 32v-297h297l-33 -94h-264z" />
    <glyph glyph-name="u" unicode="u" horiz-adv-x="1143" 
d="M494 -25q-338 0 -338 369v686l116 33v-672q0 -162 56 -236.5t187 -74.5t245 92.5t114 216.5v641l117 33v-803q0 -144 53 -242l-110 -30q-37 61 -57 170q-162 -183 -383 -183z" />
    <glyph glyph-name="v" unicode="v" horiz-adv-x="1001" 
d="M958 1038l-399 -1032l-110 -31l-406 1063h123l338 -899l340 899h114z" />
    <glyph glyph-name="w" unicode="w" horiz-adv-x="1552" 
d="M1511 1038l-370 -1032l-117 -31l-254 846l-260 -817l-107 -29l-362 1063h119l297 -884l256 811l110 30l256 -848l320 891h112z" />
    <glyph glyph-name="x" unicode="x" horiz-adv-x="1006" 
d="M954 0h-139l-311 442l-330 -442h-125l395 528l-358 510h139l289 -411l309 411h125l-373 -499z" />
    <glyph glyph-name="y" unicode="y" 
d="M944 1038l-405 -1005q-148 -366 -404 -479l-61 84q232 104 364 432l-395 968h127l328 -825l331 825h115z" />
    <glyph glyph-name="z" unicode="z" horiz-adv-x="874" 
d="M61 0v92l590 850h-575l33 96h698v-61l-606 -877h622l-35 -100h-727z" />
    <glyph glyph-name="braceleft" unicode="{" horiz-adv-x="596" 
d="M186 -92q0 68 39 198t39 199q0 156 -92 248q92 89 92 248q0 69 -39 198t-39 199q0 204 179 361h114q-170 -155 -170 -349q0 -70 39 -198t39 -199q0 -174 -92 -260q52 -52 72 -109.5t20 -139.5t-39 -210t-39 -198q0 -194 170 -349h-114q-179 160 -179 361z" />
    <glyph glyph-name="bar" unicode="|" horiz-adv-x="459" 
d="M285 -512h-111v2048h111v-2048z" />
    <glyph glyph-name="braceright" unicode="}" horiz-adv-x="596" 
d="M332 305q0 -69 39 -199t39 -198q0 -201 -179 -361h-114q170 155 170 349q0 70 -39 198t-39 210t20 139.5t72 109.5q-92 86 -92 260q0 71 39 199t39 198q0 194 -170 349h114q179 -157 179 -361q0 -70 -39 -199t-39 -198q0 -159 92 -248q-92 -92 -92 -248z" />
    <glyph glyph-name="asciitilde" unicode="~" 
d="M713 610q-82 0 -225 62t-226 63q-117 0 -231 -112v114q90 103 245 103q97 0 247 -64t208 -63q108 0 227 114v-116q-105 -101 -245 -101z" />
    <glyph glyph-name="nbspace" unicode="&#xa0;" horiz-adv-x="502" 
 />
    <glyph glyph-name="exclamdown" unicode="&#xa1;" horiz-adv-x="469" 
d="M299 -375l-117 -33v1057l117 33v-1057zM235 1063q35 0 61 -26.5t26 -61.5t-25 -60.5t-61 -25.5t-62.5 25.5t-26.5 60.5t26.5 61.5t61.5 26.5z" />
    <glyph glyph-name="cent" unicode="&#xa2;" horiz-adv-x="977" 
d="M600 963q-377 0 -377 -461q0 -310 199 -396l194 857h-16zM561 -25q-26 0 -69 5l-52 -228h-98l55 248q-144 47 -221.5 175t-77.5 312q0 297 138 436.5t374 139.5h29l51 227h98l-55 -241q83 -16 158 -52l-45 -96q-72 33 -135 49l-197 -868q36 -4 59 -4q134 0 281 90l51 -90
q-153 -103 -344 -103z" />
    <glyph glyph-name="sterling" unicode="&#xa3;" horiz-adv-x="1141" 
d="M268 1085q0 385 424 385q169 0 342 -65l-35 -98q-159 63 -311 63t-224.5 -67.5t-72.5 -210.5q0 -62 64 -310h379l-33 -98h-324q27 -138 27 -223q0 -237 -154 -352h680l-37 -109h-860v88q250 61 250 346q0 115 -31 248h-239l32 98h185q-62 239 -62 305z" />
    <glyph glyph-name="currency" unicode="&#xa4;" horiz-adv-x="1141" 
d="M570 457q113 0 192.5 78.5t79.5 192.5t-83 192.5t-193 78.5t-187.5 -79.5t-77.5 -191.5t78 -191.5t191 -79.5zM570 350q-128 0 -228 74l-184 -184l-74 75l184 185q-75 102 -75 228t75 226l-184 185l74 75l184 -184q103 76 228 76t229 -76l184 184l74 -75l-185 -185
q76 -103 76 -227t-76 -227l185 -185l-74 -75l-184 184q-101 -74 -229 -74z" />
    <glyph glyph-name="yen" unicode="&#xa5;" horiz-adv-x="1141" 
d="M932 674v-94h-320v-154h320v-94h-320v-332h-127v332h-313v94h313v154h-313v94h309l-432 772h135l377 -676l397 676h134l-467 -772h307z" />
    <glyph glyph-name="brokenbar" unicode="&#xa6;" horiz-adv-x="459" 
d="M285 -358h-111v716h111v-716zM285 666h-111v716h111v-716z" />
    <glyph glyph-name="section" unicode="&#xa7;" horiz-adv-x="1012" 
d="M791 539q0 70 -48.5 118.5t-345.5 178.5q-176 -77 -176 -201q0 -81 48 -122t130 -79l219 -100q173 78 173 205zM539 1374q-299 0 -299 -213q0 -82 60 -132.5t265 -140.5t273.5 -163t68.5 -182q0 -170 -190 -260q176 -93 176 -253t-115.5 -245.5t-303.5 -85.5t-333 63
l41 101q150 -64 289 -64t220 54.5t81 149.5t-59 142t-265 136t-274 160t-68 190q0 168 193 258q-178 97 -178 259t109.5 242t289.5 80t348 -65l-39 -94q-141 63 -290 63z" />
    <glyph glyph-name="dieresis" unicode="&#xa8;" horiz-adv-x="799" 
d="M198 1380q32 0 56.5 -23t24.5 -55t-24 -54.5t-56 -22.5t-55 22.5t-23 54.5t22.5 55t54.5 23zM600 1380q32 0 55 -23t23 -55t-23 -54.5t-55 -22.5t-56 22.5t-24 54.5t24 55t56 23z" />
    <glyph glyph-name="copyright" unicode="&#xa9;" horiz-adv-x="1688" 
d="M845 289q-163 0 -264.5 109t-101.5 307t108 310.5t302 112.5q120 0 235 -57l-41 -88q-104 49 -202 49q-291 0 -291 -330q0 -156 71 -237.5t189 -81.5t240 72l49 -82q-131 -84 -294 -84zM843 55q271 0 464.5 193.5t193.5 463.5t-193.5 464t-463.5 194t-464 -193.5
t-194 -464.5t193 -464t464 -193zM844 1470q312 0 535 -223t223 -534q0 -203 -102 -379t-278 -277.5t-378 -101.5q-312 0 -535 222.5t-223 534.5t223 535t535 223z" />
    <glyph glyph-name="ordfeminine" unicode="&#xaa;" horiz-adv-x="651" 
d="M280 872q102 0 199 101v168q-164 -32 -232.5 -56t-68.5 -118q0 -95 102 -95zM286 786q-101 0 -153.5 50.5t-52.5 119.5t42 138.5t202 99.5l155 29v18q0 76 -29.5 109.5t-121.5 33.5t-203 -69l-37 76q127 79 264 79q223 0 223 -229v-287q0 -62 37 -123l-90 -28
q-26 41 -35 76q-100 -93 -201 -93z" />
    <glyph glyph-name="guillemotleft" unicode="&#xab;" horiz-adv-x="1210" 
d="M721 0h-150l-487 518l489 520h148l-490 -520zM1169 0h-147l-487 518l487 520h147l-487 -520z" />
    <glyph glyph-name="logicalnot" unicode="&#xac;" 
d="M918 498h-99v354h-749v98h848v-452z" />
    <glyph glyph-name="sfthyphen" unicode="&#xad;" horiz-adv-x="731" 
d="M629 479h-525v103h525v-103z" />
    <glyph glyph-name="registered" unicode="&#xae;" horiz-adv-x="1688" 
d="M1010 909q0 72 -61 96.5t-137 24.5t-134 -4v-287q332 7 332 170zM678 655v-360h-103v811q169 10 213 10q172 0 248 -50.5t76 -150.5q0 -167 -197 -231l259 -389h-121l-240 369q-71 -9 -135 -9zM843 55q271 0 464.5 193.5t193.5 463.5t-193.5 464t-463.5 194t-464 -193.5
t-194 -464.5t193 -464t464 -193zM844 1470q312 0 535 -223t223 -534q0 -203 -102 -379t-278 -277.5t-378 -101.5q-312 0 -535 222.5t-223 534.5t223 535t535 223z" />
    <glyph glyph-name="overscore" unicode="&#xaf;" horiz-adv-x="1024" 
d="M1036 1589h-1048v86h1048v-86z" />
    <glyph glyph-name="degree" unicode="&#xb0;" horiz-adv-x="821" 
d="M411 1022q72 0 123.5 52t51.5 124t-51 123t-123 51t-124 -51t-52 -123t51.5 -124t123.5 -52zM409 1470q113 0 194 -80t81 -193t-81 -193t-193 -80t-192.5 80t-80.5 194t79.5 193t192.5 79z" />
    <glyph glyph-name="plusminus" unicode="&#xb1;" 
d="M918 18h-848v103h848v-103zM918 678h-373v-369h-103v369h-372v102h372v367h103v-367h373v-102z" />
    <glyph glyph-name="twosuperior" unicode="&#xb2;" horiz-adv-x="864" 
d="M733 700h-608v54q289 230 354.5 285.5t104.5 110t39 114.5t-43.5 93.5t-122.5 33.5q-135 0 -289 -84l-33 77q166 86 307 86t213 -53t72 -145t-66 -177t-370 -313h442v-82z" />
    <glyph glyph-name="threesuperior" unicode="&#xb3;" horiz-adv-x="864" 
d="M735 915q0 -105 -97 -167t-282 -62q-117 0 -225 33l29 86q100 -35 198 -35q271 0 271 145q0 78 -61.5 108t-202.5 30h-115l18 82h111q223 0 223 141q0 115 -192 115q-112 0 -248 -62l-33 82q137 59 280 59t219.5 -48t76.5 -138q0 -121 -140 -182q170 -38 170 -187z" />
    <glyph glyph-name="acute" unicode="&#xb4;" horiz-adv-x="799" 
d="M682 1481l-334 -285h-115l275 285h174z" />
    <glyph glyph-name="mu1" unicode="&#xb5;" horiz-adv-x="1143" 
d="M494 -25q-135 0 -222 76v-448l-116 -37v1464l116 33v-682q0 -159 55 -230t187 -71t246 92.5t114 216.5v641l117 33v-803q0 -145 53 -242l-110 -30q-37 61 -57 170q-163 -183 -383 -183z" />
    <glyph glyph-name="paragraph" unicode="&#xb6;" horiz-adv-x="1106" 
d="M1077 1325h-143v-1735h-125v1735h-223v-1735h-123v1026q-194 13 -299 126.5t-105 299.5t126 295t347 109h545v-121z" />
    <glyph glyph-name="middot" unicode="&#xb7;" horiz-adv-x="475" 
d="M238 827q38 0 65 -27t27 -65t-27 -65t-65 -27t-65.5 27.5t-27.5 65.5t27.5 64.5t65.5 26.5z" />
    <glyph glyph-name="cedilla" unicode="&#xb8;" horiz-adv-x="799" 
d="M598 -268q0 -183 -272 -183q-85 0 -158 25l8 86q95 -27 148 -27q163 0 163 101q0 47 -46 69t-156 25l63 184h98l-40 -116q87 -7 139.5 -49.5t52.5 -114.5z" />
    <glyph glyph-name="onesuperior" unicode="&#xb9;" horiz-adv-x="864" 
d="M522 698h-96v676l-193 -63l-12 86l225 73h76v-772z" />
    <glyph glyph-name="ordmasculine" unicode="&#xba;" horiz-adv-x="715" 
d="M356 864q98 0 152.5 72.5t54.5 194.5t-51.5 192t-151.5 70t-154 -72t-54 -195t53 -192.5t151 -69.5zM362 1470q138 0 220 -86.5t82 -244.5t-86 -255.5t-224 -97.5t-220.5 86t-82.5 246t86.5 256t224.5 96z" />
    <glyph glyph-name="guillemotright" unicode="&#xbb;" horiz-adv-x="1210" 
d="M680 518l-490 -518h-147l489 518l-489 520h147zM1128 518l-487 -518h-147l487 518l-489 520h149z" />
    <glyph glyph-name="onequarter" unicode="&#xbc;" horiz-adv-x="1849" 
d="M522 698h-96v676l-193 -63l-12 86l225 73h76v-772zM1337 1470l-839 -1495h-103l840 1495h102zM1393 273v352l-313 -352h313zM1637 191h-148v-193h-96v193h-424v80l442 499h78v-497h148v-82z" />
    <glyph glyph-name="onehalf" unicode="&#xbd;" horiz-adv-x="1849" 
d="M522 698h-96v676l-193 -63l-12 86l225 73h76v-772zM1335 1470l-839 -1495h-103l840 1495h102zM1708 0h-608v54q288 230 354 286t105 110t39 114t-44 94q-44 33 -122 33q-135 0 -289 -84l-33 77q166 86 307 86t213 -53t72 -145t-66 -177t-370 -313h442v-82z" />
    <glyph glyph-name="threequarters" unicode="&#xbe;" horiz-adv-x="1849" 
d="M735 915q0 -105 -97 -167t-282 -62q-117 0 -225 33l29 86q100 -35 198 -35q271 0 271 145q1 78 -61 108t-203 30h-115l18 82h111q223 0 223 141q0 115 -192 115q-112 0 -248 -62l-33 82q137 59 280 59t219 -48t77 -138q0 -121 -140 -182q170 -38 170 -187zM1355 1470
l-839 -1495h-103l840 1495h102zM1391 273v352l-313 -352h313zM1635 191h-148v-193h-96v193h-424v80l442 499h78v-497h148v-82z" />
    <glyph glyph-name="questiondown" unicode="&#xbf;" horiz-adv-x="899" 
d="M470 -420q-194 0 -298 96t-104 281t117 308.5t337 148.5v233l115 31v-367h-51q-184 0 -288.5 -95t-104.5 -248t70.5 -220t226.5 -67t305 92l47 -90q-178 -103 -372 -103zM575 1063q38 0 64.5 -27t26.5 -65t-26 -64t-64 -26t-65.5 26t-27.5 64t27 65t65 27z" />
    <glyph glyph-name="Agrave" unicode="&#xc0;" horiz-adv-x="1239" 
d="M852 621l-229 628l-236 -628h465zM1208 0h-129l-188 518h-543l-194 -518h-123l553 1448l84 22zM786 1546h-112l-336 285h174z" />
    <glyph glyph-name="Aacute" unicode="&#xc1;" horiz-adv-x="1239" 
d="M852 621l-229 628l-236 -628h465zM1208 0h-129l-188 518h-543l-194 -518h-123l553 1448l84 22zM943 1831l-334 -285h-115l275 285h174z" />
    <glyph glyph-name="Acircumflex" unicode="&#xc2;" horiz-adv-x="1239" 
d="M852 621l-229 628l-236 -628h465zM1208 0h-129l-188 518h-543l-194 -518h-123l553 1448l84 22zM979 1546h-119l-240 213l-237 -213h-119l279 285h157z" />
    <glyph glyph-name="Atilde" unicode="&#xc3;" horiz-adv-x="1239" 
d="M852 621l-229 628l-236 -628h465zM1208 0h-129l-188 518h-543l-194 -518h-123l553 1448l84 22zM990 1776q0 -131 -57 -182t-135 -51q-78 -1 -175 73q-98 74 -143 74q-95 0 -95 -143h-94q1 121 57 176t136 55t174 -72t139 -73q98 0 98 143h95z" />
    <glyph glyph-name="Adieresis" unicode="&#xc4;" horiz-adv-x="1239" 
d="M852 621l-229 628l-236 -628h465zM1208 0h-129l-188 518h-543l-194 -518h-123l553 1448l84 22zM426 1731q32 0 56 -23q24 -22 24 -54t-24 -55t-56 -23t-55 22t-23 56q0 32 22 54q24 22 56 23zM827 1731q32 -1 55 -23t23 -54t-23 -56q-23 -22 -55 -22t-56 23t-24 55t24 54
q24 23 56 23z" />
    <glyph glyph-name="Aring" unicode="&#xc5;" horiz-adv-x="1239" 
d="M852 621l-229 628l-236 -628h465zM1208 0h-129l-188 518h-543l-194 -518h-123l553 1448l84 22zM622 1620q54 0 90 38q38 38 38 90q0 54 -38 91t-90 37q-54 0 -91 -37t-37 -91t37 -90q37 -38 91 -38zM622 1962q88 0 151 -62t63 -152q0 -88 -63 -151t-151 -63t-152 63
q-62 63 -62 152t62 151q64 62 152 62z" />
    <glyph glyph-name="AE" unicode="&#xc6;" horiz-adv-x="1761" 
d="M860 582v706l-383 -706h383zM1669 0h-809v479h-440l-262 -479h-127l790 1446h836l-37 -105h-633v-524h555l-37 -102h-518v-609h682v-106z" />
    <glyph glyph-name="Ccedilla" unicode="&#xc7;" horiz-adv-x="1260" 
d="M111 688q0 391 185.5 586.5t510.5 195.5q199 0 375 -81l-43 -103q-163 80 -346 80q-265 0 -406 -167t-141 -479t134 -474t384 -162q192 0 379 115l55 -97q-183 -124 -436 -127l-29 -79q88 -7 140.5 -49.5t52.5 -114.5q0 -183 -273 -183q-84 0 -157 25l8 86
q95 -27 147 -27q164 0 164 101q0 47 -46 69t-157 25l52 152q-267 28 -410 218t-143 490z" />
    <glyph glyph-name="Egrave" unicode="&#xc8;" horiz-adv-x="1073" 
d="M981 0h-809v1446h797l-37 -105h-633v-524h555l-37 -102h-518v-609h682v-106zM692 1546h-112l-336 285h174z" />
    <glyph glyph-name="Eacute" unicode="&#xc9;" horiz-adv-x="1073" 
d="M981 0h-809v1446h797l-37 -105h-633v-524h555l-37 -102h-518v-609h682v-106zM863 1831l-334 -285h-115l275 285h174z" />
    <glyph glyph-name="Ecircumflex" unicode="&#xca;" horiz-adv-x="1073" 
d="M981 0h-809v1446h797l-37 -105h-633v-524h555l-37 -102h-518v-609h682v-106zM916 1544h-119l-240 213l-237 -213h-119l279 285h157z" />
    <glyph glyph-name="Edieresis" unicode="&#xcb;" horiz-adv-x="1073" 
d="M981 0h-809v1446h797l-37 -105h-633v-524h555l-37 -102h-518v-609h682v-106zM370 1731q32 0 57 -23q24 -22 24 -54t-24 -55t-56 -23t-55 22t-23 56q1 32 23 54t54 23zM772 1731q32 -1 55 -23t23 -54t-23 -56q-23 -22 -55 -22t-56 23t-24 55t24 54q24 23 56 23z" />
    <glyph glyph-name="Igrave" unicode="&#xcc;" horiz-adv-x="475" 
d="M301 0h-127v1446h127v-1446zM374 1546h-112l-336 285h174z" />
    <glyph glyph-name="Iacute" unicode="&#xcd;" horiz-adv-x="475" 
d="M301 0h-127v1446h127v-1446zM553 1829l-334 -285h-115l275 285h174z" />
    <glyph glyph-name="Icircumflex" unicode="&#xce;" horiz-adv-x="475" 
d="M301 0h-127v1446h127v-1446zM598 1546h-119l-240 213l-237 -213h-119l279 285h157z" />
    <glyph glyph-name="Idieresis" unicode="&#xcf;" horiz-adv-x="475" 
d="M301 0h-127v1446h127v-1446zM40 1731q32 0 57 -23q24 -22 24 -54t-24 -55t-56 -23t-55 22t-23 56q1 32 23 54t54 23zM442 1731q32 -1 55 -23t23 -54t-23 -56q-23 -22 -55 -22t-56 23t-24 55t24 54q24 23 56 23z" />
    <glyph glyph-name="Eth" unicode="&#xd0;" horiz-adv-x="1382" 
d="M471 92q666 0 666 653q0 310 -152.5 460.5t-478.5 150.5q-123 0 -207 -8v-543h436v-103h-436v-600q94 -10 172 -10zM547 1458q345 0 535 -177.5t190 -508.5q0 -395 -200.5 -589.5t-625.5 -194.5q-134 0 -274 12v702h-172v103h172v641q168 12 375 12z" />
    <glyph glyph-name="Ntilde" unicode="&#xd1;" horiz-adv-x="1364" 
d="M285 0h-115v1430l158 40l751 -1298v1274h115v-1436l-131 -35l-778 1340v-1315zM1039 1776q0 -131 -57 -182q-56 -51 -134 -51q-78 -1 -176 73t-143 74q-95 0 -95 -143h-94q0 121 56 176t137 55t175 -72t138 -73q98 0 98 143h95z" />
    <glyph glyph-name="Ograve" unicode="&#xd2;" horiz-adv-x="1493" 
d="M738 80q236 0 372 180q137 180 137 472t-125 463t-365 171q-239 0 -375 -182t-136 -477t128 -461t364 -166zM757 1470q301 0 463 -193t162 -530t-176 -555t-472 -217q-296 -1 -460 191t-163 528q0 336 172 556t474 220zM915 1546h-112l-336 285h174z" />
    <glyph glyph-name="Oacute" unicode="&#xd3;" horiz-adv-x="1493" 
d="M738 80q236 0 372 180q137 180 137 472t-125 463t-365 171q-239 0 -375 -182t-136 -477t128 -461t364 -166zM757 1470q301 0 463 -193t162 -530t-176 -555t-472 -217q-296 -1 -460 191t-163 528q0 336 172 556t474 220zM1035 1831l-334 -285h-115l275 285h174z" />
    <glyph glyph-name="Ocircumflex" unicode="&#xd4;" horiz-adv-x="1493" 
d="M738 80q236 0 372 180q137 180 137 472t-125 463t-365 171q-239 0 -375 -182t-136 -477t128 -461t364 -166zM757 1470q301 0 463 -193t162 -530t-176 -555t-472 -217q-296 -1 -460 191t-163 528q0 336 172 556t474 220zM1104 1546h-119l-240 213l-237 -213h-119l279 285
h157z" />
    <glyph glyph-name="Otilde" unicode="&#xd5;" horiz-adv-x="1493" 
d="M738 80q236 0 372 180q137 180 137 472t-125 463t-365 171q-239 0 -375 -182t-136 -477t128 -461t364 -166zM757 1470q301 0 463 -193t162 -530t-176 -555t-472 -217q-296 -1 -460 191t-163 528q0 336 172 556t474 220zM1107 1776q0 -131 -57 -182q-56 -51 -134 -51
q-78 -1 -176 73t-143 74q-95 0 -95 -143h-94q0 121 56 176t137 55t175 -72t138 -73q98 0 98 143h95z" />
    <glyph glyph-name="Odieresis" unicode="&#xd6;" horiz-adv-x="1493" 
d="M738 80q236 0 372 180q137 180 137 472t-125 463t-365 171q-239 0 -375 -182t-136 -477t128 -461t364 -166zM757 1470q301 0 463 -193t162 -530t-176 -555t-472 -217q-296 -1 -460 191t-163 528q0 336 172 556t474 220zM546 1731q32 0 57 -23q24 -22 24 -54t-24 -55
t-56 -23t-55 22t-23 56q1 32 23 54t54 23zM948 1731q32 -1 55 -23t23 -54t-23 -56q-23 -22 -55 -22t-56 23t-24 55t24 54q24 23 56 23z" />
    <glyph glyph-name="multiply" unicode="&#xd7;" 
d="M850 438l-70 -69l-286 286l-285 -286l-72 69l287 287l-287 285l70 69l287 -284l284 284l72 -67l-287 -287z" />
    <glyph glyph-name="Oslash" unicode="&#xd8;" horiz-adv-x="1493" 
d="M742 80q230 0 367.5 180t137.5 448t-86 427l-776 -904q127 -151 357 -151zM752 1366q-236 0 -371 -182t-135 -448t86 -427l778 901q-122 156 -358 156zM1382 758q0 -348 -176.5 -565.5t-478.5 -217.5q-263 0 -424 160l-137 -158l-70 60l148 170q-133 182 -133 475
q0 353 177 570.5t482 217.5q262 0 424 -163l139 161l66 -59l-148 -172q131 -183 131 -479z" />
    <glyph glyph-name="Ugrave" unicode="&#xd9;" horiz-adv-x="1360" 
d="M1194 567q0 -308 -120 -450t-394 -142q-274 1 -394 143t-120 449v879h127v-871q0 -277 94 -386t293 -109t293 108t94 385v873h127v-879zM841 1546h-112l-336 285h174z" />
    <glyph glyph-name="Uacute" unicode="&#xda;" horiz-adv-x="1360" 
d="M1194 567q0 -308 -120 -450t-394 -142q-274 1 -394 143t-120 449v879h127v-871q0 -277 94 -386t293 -109t293 108t94 385v873h127v-879zM981 1831l-334 -285h-115l275 285h174z" />
    <glyph glyph-name="Ucircumflex" unicode="&#xdb;" horiz-adv-x="1360" 
d="M1194 567q0 -308 -120 -450t-394 -142q-274 1 -394 143t-120 449v879h127v-871q0 -277 94 -386t293 -109t293 108t94 385v873h127v-879zM1037 1546h-119l-240 213l-237 -213h-119l279 285h157z" />
    <glyph glyph-name="Udieresis" unicode="&#xdc;" horiz-adv-x="1360" 
d="M1194 567q0 -308 -120 -450t-394 -142q-274 1 -394 143t-120 449v879h127v-871q0 -277 94 -386t293 -109t293 108t94 385v873h127v-879zM478 1731q32 0 57 -23q24 -22 24 -54t-24 -55t-56 -23t-55 22t-23 56q1 32 23 54t54 23zM880 1731q32 -1 55 -23t23 -54t-23 -56
q-23 -22 -55 -22t-56 23t-24 55t24 54q24 23 56 23z" />
    <glyph glyph-name="Yacute" unicode="&#xdd;" horiz-adv-x="1171" 
d="M627 0h-127v666l-449 780h135l389 -676l412 676h133l-493 -793v-653zM904 1831l-334 -285h-115l275 285h174z" />
    <glyph glyph-name="Thorn" unicode="&#xde;" horiz-adv-x="1128" 
d="M500 1042q-156 0 -201 -4v-647q295 6 459 102t164 277t-133 226.5t-289 45.5zM512 1137q285 0 415 -90.5t130 -270.5q0 -225 -197 -350.5t-561 -132.5v-293h-127v1446h127v-313q72 4 213 4z" />
    <glyph glyph-name="germandbls" unicode="&#xdf;" horiz-adv-x="1303" 
d="M244 1038v133q0 187 93.5 287.5t261.5 100.5t257.5 -69t89.5 -187q0 -68 -28 -122.5t-97 -138.5t-91.5 -132.5t-22.5 -108.5t52.5 -99.5t202.5 -105.5t214.5 -139t64.5 -201t-94 -204.5t-262 -76.5t-318 60l39 100q136 -59 285 -59q231 0 231 192q0 69 -41.5 119
t-199.5 116t-225.5 124.5t-67.5 169.5q0 118 124 271q72 88 94.5 131t22.5 99q0 170 -221 170q-127 0 -187.5 -76.5t-60.5 -240.5v-1151h-116v944h-205l35 94h170z" />
    <glyph glyph-name="agrave" unicode="&#xe0;" horiz-adv-x="1030" 
d="M412 72q152 0 338 182v313l-256 -51q-277 -57 -277 -262q1 -86 51 -134t144 -48zM393 -25q-141 1 -221 77t-80 204q0 178 171 275q85 48 212 73l275 53v50q0 135 -55 197t-195 61q-140 0 -305 -119l-54 88q182 129 371 129q190 1 272 -85t82 -261v-486q0 -120 54 -213
l-111 -30q-44 73 -53 159q-174 -172 -363 -172zM655 1196h-112l-336 285h174z" />
    <glyph glyph-name="aacute" unicode="&#xe1;" horiz-adv-x="1030" 
d="M412 72q152 0 338 182v313l-256 -51q-277 -57 -277 -262q1 -86 51 -134t144 -48zM393 -25q-141 1 -221 77t-80 204q0 178 171 275q85 48 212 73l275 53v50q0 135 -55 197t-195 61q-140 0 -305 -119l-54 88q182 129 371 129q190 1 272 -85t82 -261v-486q0 -120 54 -213
l-111 -30q-44 73 -53 159q-174 -172 -363 -172zM805 1481l-334 -285h-115l275 285h174z" />
    <glyph glyph-name="acircumflex" unicode="&#xe2;" horiz-adv-x="1030" 
d="M412 72q152 0 338 182v313l-256 -51q-277 -57 -277 -262q1 -86 51 -134t144 -48zM393 -25q-141 1 -221 77t-80 204q0 178 171 275q85 48 212 73l275 53v50q0 135 -55 197t-195 61q-140 0 -305 -119l-54 88q182 129 371 129q190 1 272 -85t82 -261v-486q0 -120 54 -213
l-111 -30q-44 73 -53 159q-174 -172 -363 -172zM873 1196h-119l-240 213l-237 -213h-119l279 285h157z" />
    <glyph glyph-name="atilde" unicode="&#xe3;" horiz-adv-x="1030" 
d="M412 72q152 0 338 182v313l-256 -51q-277 -57 -277 -262q1 -86 51 -134t144 -48zM393 -25q-141 1 -221 77t-80 204q0 178 171 275q85 48 212 73l275 53v50q0 135 -55 197t-195 61q-140 0 -305 -119l-54 88q182 129 371 129q190 1 272 -85t82 -261v-486q0 -120 54 -213
l-111 -30q-44 73 -53 159q-174 -172 -363 -172zM853 1425q0 -131 -57 -182q-56 -51 -134 -51t-176 74t-143 73q-95 0 -95 -143h-94q0 121 56 176t137 55q81 -1 175 -73t138 -72q98 0 98 143h95z" />
    <glyph glyph-name="adieresis" unicode="&#xe4;" horiz-adv-x="1030" 
d="M412 72q152 0 338 182v313l-256 -51q-277 -57 -277 -262q1 -86 51 -134t144 -48zM393 -25q-141 1 -221 77t-80 204q0 178 171 275q85 48 212 73l275 53v50q0 135 -55 197t-195 61q-140 0 -305 -119l-54 88q182 129 371 129q190 1 272 -85t82 -261v-486q0 -120 54 -213
l-111 -30q-44 73 -53 159q-174 -172 -363 -172zM322 1380q32 0 56 -23t24 -55t-24 -54q-24 -23 -56 -23q-32 1 -55 23t-23 54t22 56q24 22 56 22zM723 1380q32 0 55 -22t23 -56q0 -32 -23 -54t-55 -23q-32 0 -56 23q-24 22 -24 54t24 55t56 23z" />
    <glyph glyph-name="aring" unicode="&#xe5;" horiz-adv-x="1030" 
d="M412 72q152 0 338 182v313l-256 -51q-277 -57 -277 -262q1 -86 51 -134t144 -48zM393 -25q-141 1 -221 77t-80 204q0 178 171 275q85 48 212 73l275 53v50q0 135 -55 197t-195 61q-140 0 -305 -119l-54 88q182 129 371 129q190 1 272 -85t82 -261v-486q0 -120 54 -213
l-111 -30q-44 73 -53 159q-174 -172 -363 -172zM516 1249q54 -1 92 37t37 92q1 54 -37 90q-38 37 -92 37t-90 -37q-37 -36 -37 -90t37 -92q36 -38 90 -37zM516 1591q88 -1 152 -63q63 -62 63 -150t-63 -152q-64 -63 -152 -63t-150 63t-63 152q1 89 63 151t150 62z" />
    <glyph glyph-name="ae" unicode="&#xe6;" horiz-adv-x="1673" 
d="M750 473v94l-256 -51q-277 -57 -277 -262q0 -86 50.5 -134t137.5 -48q168 0 371 209q-26 79 -26 192zM1460 614v13q0 161 -69 249.5t-195 88.5t-215.5 -97.5t-106.5 -253.5h586zM92 256q0 178 128 250.5t255 97.5l275 53v70q0 128 -60 183t-196 55t-299 -119l-54 88
q182 129 381 129q270 0 318 -211q128 211 360 211q179 0 277 -116.5t98 -315.5v-111h-707q-2 -17 -2 -45q0 -186 92.5 -291.5t260.5 -105.5q129 0 274 90l51 -90q-155 -103 -336 -103q-275 0 -395 215q-197 -215 -420 -215q-140 0 -220.5 76.5t-80.5 204.5z" />
    <glyph glyph-name="ccedilla" unicode="&#xe7;" horiz-adv-x="977" 
d="M98 487q0 297 138 436.5t374 139.5q140 0 281 -66l-45 -96q-134 62 -246 62q-377 0 -377 -461q0 -200 87 -312t263 -112q134 0 281 90l51 -90q-144 -95 -307 -103l-29 -79q88 -7 140.5 -49.5t52.5 -114.5q0 -183 -273 -183q-84 0 -157 25l8 86q95 -27 147 -27
q164 0 164 101q0 47 -46 69t-156 25l51 149q-192 22 -297 158.5t-105 351.5z" />
    <glyph glyph-name="egrave" unicode="&#xe8;" horiz-adv-x="1030" 
d="M817 614v13q0 161 -69 249q-68 88 -194 89q-126 -1 -212 -95t-111 -256h586zM932 520h-707q-2 -17 -2 -45q1 -185 93 -291t259 -106q130 0 275 90l51 -90q-155 -103 -336 -103q-221 -1 -344 141t-123 386t128 403q128 158 318 158q192 -1 290 -117t98 -315v-111z
M681 1196h-112l-336 285h174z" />
    <glyph glyph-name="eacute" unicode="&#xe9;" horiz-adv-x="1030" 
d="M817 614v13q0 161 -69 249q-68 88 -194 89q-126 -1 -212 -95t-111 -256h586zM932 520h-707q-2 -17 -2 -45q1 -185 93 -291t259 -106q130 0 275 90l51 -90q-155 -103 -336 -103q-221 -1 -344 141t-123 386t128 403q128 158 318 158q192 -1 290 -117t98 -315v-111z
M850 1481l-334 -285h-115l275 285h174z" />
    <glyph glyph-name="ecircumflex" unicode="&#xea;" horiz-adv-x="1030" 
d="M817 614v13q0 161 -69 249q-68 88 -194 89q-126 -1 -212 -95t-111 -256h586zM932 520h-707q-2 -17 -2 -45q1 -185 93 -291t259 -106q130 0 275 90l51 -90q-155 -103 -336 -103q-221 -1 -344 141t-123 386t128 403q128 158 318 158q192 -1 290 -117t98 -315v-111z
M912 1196h-119l-240 213l-237 -213h-119l279 285h157z" />
    <glyph glyph-name="edieresis" unicode="&#xeb;" horiz-adv-x="1030" 
d="M817 614v13q0 161 -69 249q-68 88 -194 89q-126 -1 -212 -95t-111 -256h586zM932 520h-707q-2 -17 -2 -45q1 -185 93 -291t259 -106q130 0 275 90l51 -90q-155 -103 -336 -103q-221 -1 -344 141t-123 386t128 403q128 158 318 158q192 -1 290 -117t98 -315v-111z
M352 1380q32 0 56 -23t24 -55t-24 -54q-24 -23 -56 -23q-32 1 -55 23t-23 54t22 56q24 22 56 22zM753 1380q32 0 55 -22t23 -56q0 -32 -23 -54t-55 -23q-32 0 -56 23q-24 22 -24 54t24 55t56 23z" />
    <glyph glyph-name="igrave" unicode="&#xec;" horiz-adv-x="432" 
d="M274 0h-116v1030l116 33v-1063zM368 1196h-112l-336 285h174z" />
    <glyph glyph-name="iacute" unicode="&#xed;" horiz-adv-x="432" 
d="M274 0h-116v1030l116 33v-1063zM537 1481l-334 -285h-115l275 285h174z" />
    <glyph glyph-name="icircumflex" unicode="&#xee;" horiz-adv-x="432" 
d="M274 0h-116v1030l116 33v-1063zM576 1196h-119l-240 213l-237 -213h-119l279 285h157z" />
    <glyph glyph-name="idieresis" unicode="&#xef;" horiz-adv-x="432" 
d="M274 0h-116v1030l116 33v-1063zM14 1380q32 0 57 -23q24 -23 24 -55t-24 -54q-24 -23 -56 -23q-32 1 -55 23t-23 54q1 32 23 56q22 22 54 22zM416 1380q32 0 55 -22t23 -56q0 -32 -23 -54t-55 -23q-32 0 -56 23q-24 22 -24 54t24 55t56 23z" />
    <glyph glyph-name="eth" unicode="&#xf0;" horiz-adv-x="1102" 
d="M550 76q158 0 243.5 115t85.5 325t-85.5 328.5t-243.5 118.5t-242.5 -116.5t-84.5 -328.5t84.5 -327t242.5 -115zM1004 522q0 -252 -125.5 -399.5t-331.5 -147.5t-327.5 141.5t-121.5 394.5t124 402.5t325 149.5q145 0 256 -86q-55 173 -193 356l-192 -127l-51 72
l190 127q-52 64 -141 154h131q43 -43 92 -99l135 90l53 -69l-131 -88q308 -375 308 -871z" />
    <glyph glyph-name="ntilde" unicode="&#xf1;" horiz-adv-x="1135" 
d="M653 1063q338 0 338 -369v-694h-117v651q0 164 -55 238t-184 74q-129 1 -246 -89t-117 -210v-664h-116v1030l116 33v-178q155 178 381 178zM928 1425q0 -131 -57 -182t-135 -51t-175 74q-98 74 -143 73q-95 0 -95 -143h-94q1 121 57 176t136 55q80 -1 174 -73t139 -72
q98 0 98 143h95z" />
    <glyph glyph-name="ograve" unicode="&#xf2;" horiz-adv-x="1102" 
d="M550 76q158 0 244 115t85 323t-81 329q-80 120 -242 120q-162 1 -248 -117q-85 -118 -85 -329t84 -326q85 -115 243 -115zM554 1063q208 -1 329 -143t121 -396t-126 -402t-331 -147q-205 -1 -327 141t-122 396t124 402q124 149 332 149zM710 1196h-112l-336 285h174z" />
    <glyph glyph-name="oacute" unicode="&#xf3;" horiz-adv-x="1102" 
d="M550 76q158 0 244 115t85 323t-81 329q-80 120 -242 120q-162 1 -248 -117q-85 -118 -85 -329t84 -326q85 -115 243 -115zM554 1063q208 -1 329 -143t121 -396t-126 -402t-331 -147q-205 -1 -327 141t-122 396t124 402q124 149 332 149zM844 1481l-334 -285h-115l275 285
h174z" />
    <glyph glyph-name="ocircumflex" unicode="&#xf4;" horiz-adv-x="1102" 
d="M550 76q158 0 244 115t85 323t-81 329q-80 120 -242 120q-162 1 -248 -117q-85 -118 -85 -329t84 -326q85 -115 243 -115zM554 1063q208 -1 329 -143t121 -396t-126 -402t-331 -147q-205 -1 -327 141t-122 396t124 402q124 149 332 149zM912 1196h-119l-240 213
l-237 -213h-119l279 285h157z" />
    <glyph glyph-name="otilde" unicode="&#xf5;" horiz-adv-x="1102" 
d="M550 76q158 0 244 115t85 323t-81 329q-80 120 -242 120q-162 1 -248 -117q-85 -118 -85 -329t84 -326q85 -115 243 -115zM554 1063q208 -1 329 -143t121 -396t-126 -402t-331 -147q-205 -1 -327 141t-122 396t124 402q124 149 332 149zM906 1425q0 -131 -57 -182
t-135 -51t-175 74q-98 74 -143 73q-95 0 -95 -143h-94q1 121 57 176t136 55q80 -1 174 -73t139 -72q98 0 98 143h95z" />
    <glyph glyph-name="odieresis" unicode="&#xf6;" horiz-adv-x="1102" 
d="M550 76q158 0 244 115t85 323t-81 329q-80 120 -242 120q-162 1 -248 -117q-85 -118 -85 -329t84 -326q85 -115 243 -115zM554 1063q208 -1 329 -143t121 -396t-126 -402t-331 -147q-205 -1 -327 141t-122 396t124 402q124 149 332 149zM352 1380q32 0 56 -23t24 -55
t-24 -54q-24 -23 -56 -23q-32 1 -55 23t-23 54t22 56q24 22 56 22zM753 1380q32 0 55 -22t23 -56q0 -32 -23 -54t-55 -23q-32 0 -56 23q-24 22 -24 54t24 55t56 23z" />
    <glyph glyph-name="divide" unicode="&#xf7;" 
d="M494 496q36 0 61 -25t25 -61t-25 -61t-61 -25t-61 25t-25 61t25 61t61 25zM918 672h-848v102h848v-102zM494 1122q36 0 61 -25.5t25 -60.5t-25 -60.5t-61 -25.5t-61 25t-25 61t25 61t61 25z" />
    <glyph glyph-name="oslash" unicode="&#xf8;" horiz-adv-x="1102" 
d="M553 76q155 0 240.5 115t85.5 325q0 155 -45 260l-521 -594q85 -106 240 -106zM549 963q-156 0 -241 -117.5t-85 -329.5q0 -153 45 -256l523 594q-86 109 -242 109zM1004 502q0 -232 -125.5 -379.5t-323.5 -147.5t-317 121l-109 -123l-63 58l118 135q-86 134 -86 366
t124.5 381.5t323.5 149.5t320 -123l109 123l61 -57l-118 -134q86 -138 86 -370z" />
    <glyph glyph-name="ugrave" unicode="&#xf9;" horiz-adv-x="1143" 
d="M494 -25q-338 0 -338 369v686l116 33v-672q0 -163 56 -237t187 -74t245 92t114 217v641l117 33v-803q0 -144 53 -242l-110 -30q-37 61 -57 170q-162 -183 -383 -183zM733 1196h-112l-336 285h174z" />
    <glyph glyph-name="uacute" unicode="&#xfa;" horiz-adv-x="1143" 
d="M494 -25q-338 0 -338 369v686l116 33v-672q0 -163 56 -237t187 -74t245 92t114 217v641l117 33v-803q0 -144 53 -242l-110 -30q-37 61 -57 170q-162 -183 -383 -183zM904 1481l-334 -285h-115l275 285h174z" />
    <glyph glyph-name="ucircumflex" unicode="&#xfb;" horiz-adv-x="1143" 
d="M494 -25q-338 0 -338 369v686l116 33v-672q0 -163 56 -237t187 -74t245 92t114 217v641l117 33v-803q0 -144 53 -242l-110 -30q-37 61 -57 170q-162 -183 -383 -183zM930 1196h-119l-240 213l-237 -213h-119l279 285h157z" />
    <glyph glyph-name="udieresis" unicode="&#xfc;" horiz-adv-x="1143" 
d="M494 -25q-338 0 -338 369v686l116 33v-672q0 -163 56 -237t187 -74t245 92t114 217v641l117 33v-803q0 -144 53 -242l-110 -30q-37 61 -57 170q-162 -183 -383 -183zM374 1380q32 0 57 -23q24 -23 24 -55t-24 -54q-24 -23 -56 -23q-32 1 -55 23t-23 54q1 32 23 56
q22 22 54 22zM776 1380q32 0 55 -22t23 -56q0 -32 -23 -54t-55 -23q-32 0 -56 23q-24 22 -24 54t24 55t56 23z" />
    <glyph glyph-name="yacute" unicode="&#xfd;" 
d="M944 1038l-405 -1005q-148 -366 -404 -479l-61 84q232 104 364 432l-395 968h127l328 -825l331 825h115zM820 1481l-334 -285h-115l275 285h174z" />
    <glyph glyph-name="thorn" unicode="&#xfe;" horiz-adv-x="1139" 
d="M283 336q0 -122 74.5 -191t201.5 -69q158 0 257 121t99 331t-82 322.5t-239 112.5t-311 -164v-463zM624 1063q196 0 306 -138.5t110 -388.5t-136 -405.5t-343 -155.5q-169 0 -278 109v-502l-117 -33v1977l117 33v-635q145 139 341 139z" />
    <glyph glyph-name="ydieresis" unicode="&#xff;" 
d="M944 1038l-405 -1005q-148 -366 -404 -479l-61 84q232 104 364 432l-395 968h127l328 -825l331 825h115zM298 1380q32 0 57 -23q24 -23 24 -55t-24 -54q-24 -23 -56 -23q-32 1 -55 23t-23 54q1 32 23 56q22 22 54 22zM700 1380q32 0 55 -22t23 -56q0 -32 -23 -54t-55 -23
q-32 0 -56 23q-24 22 -24 54t24 55t56 23z" />
    <glyph glyph-name="dotlessi" unicode="&#x131;" horiz-adv-x="432" 
d="M274 0h-116v1030l116 33v-1063z" />
    <glyph glyph-name="Lslash" unicode="&#x141;" horiz-adv-x="1042" 
d="M981 0h-809v618l-172 -129v121l172 129v707h127v-612l340 253v-120l-340 -254v-602h682v-111z" />
    <glyph glyph-name="lslash" unicode="&#x142;" horiz-adv-x="432" 
d="M274 0h-116v643l-146 -156v136l146 155v748l116 33v-654l148 156v-135l-148 -158v-768z" />
    <glyph glyph-name="OE" unicode="&#x152;" horiz-adv-x="2148" 
d="M738 80q236 0 372.5 180t136.5 472t-125 463t-365 171t-375.5 -182t-135.5 -477t128 -461t364 -166zM2056 0h-809v268q-175 -293 -520 -293q-289 0 -452.5 191.5t-163.5 527.5t172 556t492 220t472 -247v223h797l-37 -105h-633v-524h555l-37 -102h-518v-609h682v-106z
" />
    <glyph glyph-name="oe" unicode="&#x153;" horiz-adv-x="1806" 
d="M550 76q158 0 243.5 115t85.5 325t-85.5 328.5t-243.5 118.5t-242.5 -116.5t-84.5 -328.5t84.5 -327t242.5 -115zM1597 614v29q0 155 -70.5 238.5t-194.5 83.5t-211.5 -95.5t-110.5 -255.5h587zM1339 1063q175 0 274 -118t99 -314v-111h-711v-45q4 -188 96.5 -292.5
t258.5 -104.5q128 0 272 90l49 -92q-164 -101 -331 -101q-292 0 -408 246q-120 -246 -389 -246q-208 0 -329.5 141.5t-121.5 396.5t124.5 402.5t326.5 147.5q137 0 241 -66t158 -192q126 258 391 258z" />
    <glyph glyph-name="Scaron" unicode="&#x160;" horiz-adv-x="1126" 
d="M594 1366q-170 0 -257 -68t-87 -162t36 -144t96 -82q58 -32 280 -128t293 -185q71 -90 71 -212q0 -190 -132 -300t-363 -110t-433 82l43 113q189 -88 375 -88t284 76t99 219q0 144 -135 218q-57 31 -232 105q-261 108 -333 200t-72 204q-1 112 55 194q115 172 432 172
q184 0 361 -71l-39 -109q-172 76 -342 76zM934 1831l-279 -285h-157l-279 285h119l237 -213l240 213h119z" />
    <glyph glyph-name="scaron" unicode="&#x161;" horiz-adv-x="909" 
d="M428 72q264 0 264 190q0 62 -50 114t-219 122q-170 70 -238 132t-68 180q1 118 95 185q94 68 264 68t300 -66l-39 -96q-137 68 -259 68t-181 -43t-59 -116t52 -112t178 -90t193 -88q150 -84 150 -237q0 -152 -102 -230q-101 -78 -275 -78t-338 64l37 100q157 -67 295 -67
zM815 1481l-279 -285h-157l-279 285h119l237 -213l240 213h119z" />
    <glyph glyph-name="Ydieresis" unicode="&#x178;" horiz-adv-x="1171" 
d="M627 0h-127v666l-449 780h135l389 -676l412 676h133l-493 -793v-653zM384 1733q32 0 57 -23q24 -22 24 -54t-24 -55t-56 -23t-55 22t-23 56q1 32 23 54t54 23zM786 1733q32 -1 55 -23t23 -54t-23 -56q-23 -22 -55 -22t-56 23t-24 55t24 54q24 23 56 23z" />
    <glyph glyph-name="Zcaron" unicode="&#x17d;" horiz-adv-x="1198" 
d="M106 0v84l805 1257h-790l39 105h925v-51l-823 -1289h834l-37 -106h-953zM965 1831l-279 -285h-157l-279 285h119l237 -213l240 213h119z" />
    <glyph glyph-name="zcaron" unicode="&#x17e;" horiz-adv-x="874" 
d="M61 0v92l590 850h-575l33 96h698v-61l-606 -877h622l-35 -100h-727zM787 1481l-279 -285h-157l-279 285h119l237 -213l240 213h119z" />
    <glyph glyph-name="florin" unicode="&#x192;" horiz-adv-x="1141" 
d="M969 1464q-124 0 -180.5 -73.5t-77.5 -216.5l-60 -418h264l-24 -94h-250l-103 -727q-28 -191 -116.5 -287.5t-265.5 -96.5q-109 0 -174 29l43 90q63 -22 137 -22q128 0 183.5 72t74.5 209l102 733h-235l26 94h222l55 396q55 407 385 407q91 0 176 -27l-41 -90
q-87 22 -141 22z" />
    <glyph glyph-name="circumflex" unicode="&#x2c6;" horiz-adv-x="799" 
d="M760 1196h-119l-240 213l-237 -213h-119l279 285h157z" />
    <glyph glyph-name="caron" unicode="&#x2c7;" horiz-adv-x="799" 
d="M758 1481l-279 -285h-157l-279 285h119l237 -213l240 213h119z" />
    <glyph glyph-name="macron" unicode="&#x2c9;" horiz-adv-x="799" 
d="M750 1286h-701v103h701v-103z" />
    <glyph glyph-name="breve" unicode="&#x2d8;" horiz-adv-x="799" 
d="M399 1196q-133 0 -227.5 73t-126.5 210h98q26 -84 98.5 -135.5t158.5 -51.5t158 51.5t97 135.5h99q-33 -137 -127.5 -210t-227.5 -73z" />
    <glyph glyph-name="dotaccent" unicode="&#x2d9;" horiz-adv-x="799" 
d="M400 1409q44 0 75 -31.5t31 -75.5t-31 -75t-75 -31t-75.5 31t-31.5 75t31.5 75.5t75.5 31.5z" />
    <glyph glyph-name="ring" unicode="&#x2da;" horiz-adv-x="799" 
d="M400 1276q54 0 91 37t37 91t-37 91t-91 37t-91 -37t-37 -91t37 -91t91 -37zM400 1618q88 0 151 -63t63 -151t-63 -151t-151 -63t-151 63t-63 152t63 151t151 62z" />
    <glyph glyph-name="ogonek" unicode="&#x2db;" horiz-adv-x="799" 
d="M469 -451q-109 0 -166 58.5t-57 172.5t76 234h96q-70 -116 -70 -225q0 -143 150 -143q93 0 184 39v-93q-104 -43 -213 -43z" />
    <glyph glyph-name="tilde" unicode="&#x2dc;" horiz-adv-x="799" 
d="M752 1425q0 -131 -57 -182t-135 -51t-175 74q-98 74 -143 73q-95 0 -95 -143h-94q0 121 56.5 176t136.5 55q80 -1 174 -73t139 -72q98 0 98 143h95z" />
    <glyph glyph-name="hungarumlaut" unicode="&#x2dd;" horiz-adv-x="799" 
d="M565 1481l-311 -285h-115l252 285h174zM950 1481l-311 -285h-115l252 285h174z" />
    <glyph glyph-name="endash" unicode="&#x2013;" horiz-adv-x="1024" 
d="M1036 483h-1048v95h1048v-95z" />
    <glyph glyph-name="emdash" unicode="&#x2014;" horiz-adv-x="2048" 
d="M2066 483h-2084v95h2084v-95z" />
    <glyph glyph-name="quoteleft" unicode="&#x2018;" horiz-adv-x="475" 
d="M330 1206q0 -38 -26 -65t-68 -27t-67.5 31t-25.5 86q0 177 168 330l45 -43q-112 -111 -120 -222q43 -2 68.5 -27t25.5 -63z" />
    <glyph glyph-name="quoteright" unicode="&#x2019;" horiz-adv-x="475" 
d="M145 1466q0 38 26 65.5t68 27.5t67.5 -31.5t25.5 -85.5q0 -177 -168 -330l-45 43q112 111 121 221q-44 2 -69.5 27t-25.5 63z" />
    <glyph glyph-name="quotesinglbase" unicode="&#x201a;" horiz-adv-x="475" 
d="M145 76q0 38 26.5 65t68.5 27t67 -31t25 -86q0 -177 -168 -330l-45 43q112 111 121 222q-44 2 -69.5 27t-25.5 63z" />
    <glyph glyph-name="quotedblleft" unicode="&#x201c;" horiz-adv-x="844" 
d="M330 1206q0 -38 -26 -65t-68 -27t-67.5 31t-25.5 86q0 177 168 330l45 -43q-112 -111 -120 -222q43 -2 68.5 -27t25.5 -63zM698 1206q0 -38 -26 -65t-68 -27t-67 31t-25 86q0 177 168 330l45 -43q-112 -111 -121 -222q44 -2 69 -27t25 -63z" />
    <glyph glyph-name="quotedblright" unicode="&#x201d;" horiz-adv-x="844" 
d="M145 1466q0 38 26 65.5t68 27.5t67.5 -31.5t25.5 -85.5q0 -177 -168 -330l-45 43q112 111 121 221q-44 2 -69.5 27t-25.5 63zM514 1466q0 38 26 65.5t68 27.5t67 -31.5t25 -85.5q0 -177 -168 -330l-45 43q113 111 121 221q-43 2 -68.5 27t-25.5 63z" />
    <glyph glyph-name="quotedblbase" unicode="&#x201e;" horiz-adv-x="844" 
d="M145 76q0 38 26.5 65t68.5 27t67 -31t25 -86q0 -177 -168 -330l-45 43q112 111 121 222q-44 2 -69.5 27t-25.5 63zM514 76q0 38 26 65t68 27t67 -31t25 -86q0 -177 -168 -330l-45 43q113 111 121 222q-43 2 -68.5 27t-25.5 63z" />
    <glyph glyph-name="dagger" unicode="&#x2020;" horiz-adv-x="1135" 
d="M1014 864h-391v-1169h-115v1169h-387v111h387v471h115v-471h391v-111z" />
    <glyph glyph-name="daggerdbl" unicode="&#x2021;" horiz-adv-x="1135" 
d="M1014 123h-391v-428h-115v428h-387v113h387v671h-387v113h387v426h115v-426h391v-113h-391v-671h391v-113z" />
    <glyph glyph-name="bullet" unicode="&#x2022;" horiz-adv-x="717" 
d="M360 971q103 0 177.5 -74.5t74.5 -180.5t-74 -179.5t-180 -73.5t-180 75.5t-74 181.5t76.5 178.5t179.5 72.5z" />
    <glyph glyph-name="ellipsis" unicode="&#x2026;" horiz-adv-x="1743" 
d="M238 168q38 0 65 -27t27 -65t-27 -65t-65 -27t-65.5 27t-27.5 65t27.5 65t65.5 27zM872 168q38 0 65.5 -27t27.5 -65t-27.5 -65t-65.5 -27t-65 27t-27 65t27 65t65 27zM1505 168q38 0 65 -27t27 -65t-27 -65t-65 -27t-65 27t-27 65t27 65t65 27z" />
    <glyph glyph-name="perthousand" unicode="&#x2030;" horiz-adv-x="2658" 
d="M1418 63q107 0 167 80.5t60 220.5t-60.5 224t-168.5 84t-167 -81t-59 -221t60.5 -223.5t167.5 -83.5zM1418 760q148 0 240.5 -106t92.5 -287t-93.5 -286.5t-242.5 -105.5t-240.5 102.5t-91.5 282.5t93.5 290t241.5 110zM2227 63q107 0 167 80.5t60 220.5t-60 224t-168 84
t-167.5 -81t-59.5 -221t60.5 -223.5t167.5 -83.5zM2228 760q147 0 239.5 -106t92.5 -286t-92.5 -286.5t-242.5 -106.5t-241.5 102.5t-91.5 284.5t94.5 290t241.5 108zM431 774q107 0 166.5 80t59.5 220t-59.5 224t-167.5 84t-167.5 -80.5t-59.5 -220.5t60.5 -223.5
t167.5 -83.5zM432 1470q148 0 240 -105t92 -287t-93.5 -287t-242.5 -105t-240.5 103t-91.5 283t94 289t242 109zM1397 1470l-840 -1495h-102l839 1495h103z" />
    <glyph glyph-name="guilsinglleft" unicode="&#x2039;" horiz-adv-x="766" 
d="M700 0h-149l-488 518l490 520h147l-489 -520z" />
    <glyph glyph-name="guilsinglright" unicode="&#x203a;" horiz-adv-x="766" 
d="M680 518l-487 -518h-148l487 518l-489 520h147z" />
    <glyph glyph-name="Euro" unicode="&#x20ac;" horiz-adv-x="1141" 
d="M694 -25q-207 0 -348.5 150t-173.5 418h-137l31 94h98l-2 51q0 67 6 129h-133l31 94h112q43 274 187.5 416.5t371.5 142.5q184 0 359 -75l-41 -103q-163 72 -333 72t-275.5 -113.5t-137.5 -339.5h643l-30 -94h-623q-4 -72 -4 -117v-63h569l-30 -94h-533
q25 -226 135.5 -345.5t280.5 -119.5t348 110l51 -84q-102 -72 -192.5 -100.5t-229.5 -28.5z" />
    <glyph glyph-name="trademark" unicode="&#x2122;" horiz-adv-x="1802" 
d="M457 1362v-729h-105v729h-297l29 84h668l-29 -84h-266zM1683 633h-100l-57 659l-256 -645l-84 -22l-246 659l-59 -651h-95l70 792l123 33l248 -674l252 639l131 35z" />
    <glyph glyph-name="Ohm" unicode="&#x2126;" horiz-adv-x="1462" 
d="M1352 0h-457v109q326 267 326 663q0 259 -132 417.5t-355 158.5t-363 -161t-140 -413q0 -401 330 -665v-109h-459v109h322q-324 261 -324 677q0 291 177 481.5t459 190.5t449 -182t167 -485q0 -204 -87 -382.5t-239 -299.5h326v-109z" />
    <glyph glyph-name="partialdiff" unicode="&#x2202;" horiz-adv-x="1188" 
d="M459 84q157 0 259.5 143.5t153 303t50.5 185.5t-31 81.5t-91.5 90t-142.5 34.5q-169 0 -296.5 -166.5t-127.5 -401.5q0 -123 62 -196.5t164 -73.5zM672 1487q190 0 298.5 -126.5t108.5 -351.5t-74.5 -472.5t-220 -402t-315.5 -154.5t-267.5 104t-97.5 274q0 282 167 474
t380 192q98 0 174 -43t113 -117h4q10 71 10 152q0 179 -77.5 272.5t-219.5 93.5q-102 0 -198 -55l-37 94q113 66 252 66z" />
    <glyph glyph-name="increment" unicode="&#x2206;" horiz-adv-x="1255" 
d="M1059 111l-365 1004q-26 71 -57 181h-6l-33 -110l-393 -1075h854zM1212 0h-1155v70l506 1364h148l501 -1364v-70z" />
    <glyph glyph-name="product" unicode="&#x220f;" horiz-adv-x="1481" 
d="M1298 -471h-129v1794h-856v-1794h-129v1905h1114v-1905z" />
    <glyph glyph-name="summation" unicode="&#x2211;" horiz-adv-x="1300" 
d="M1235 -471h-1190v53l709 907l-658 879v66h1086v-109h-912l627 -833l-668 -854h1006v-109z" />
    <glyph glyph-name="minus" unicode="&#x2212;" 
d="M918 672h-848v102h848v-102z" />
    <glyph glyph-name="fraction" unicode="&#x2215;" horiz-adv-x="377" 
d="M635 1470l-839 -1495h-103l840 1495h102z" />
    <glyph glyph-name="periodcentered" unicode="&#x2219;" horiz-adv-x="475" 
d="M238 827q38 0 65 -27t27 -65t-27 -65t-65 -27t-65.5 27.5t-27.5 65.5t27.5 64.5t65.5 26.5z" />
    <glyph glyph-name="radical" unicode="&#x221a;" horiz-adv-x="1063" 
d="M1069 1491l-412 -1516h-106l-297 721q-75 -45 -113 -65q-28 52 -43 82q115 65 217 127l285 -688l363 1339h106z" />
    <glyph glyph-name="infinity" unicode="&#x221e;" horiz-adv-x="1616" 
d="M426 821q-90 0 -147.5 -62.5t-57.5 -162.5t60 -160.5t153 -60.5q173 0 318 223q-65 104 -150.5 163.5t-175.5 59.5zM1171 375q103 0 160.5 62.5t57.5 162.5t-57 160.5t-158 60.5q-172 0 -316 -223q135 -223 313 -223zM1174 922q146 0 238.5 -88t92.5 -230t-90 -236
t-233 -94q-226 0 -375 234h-4q-160 -234 -369 -234q-148 0 -239 90t-91 232t89.5 234t234.5 92q220 0 375 -234h4q157 234 367 234z" />
    <glyph glyph-name="integral" unicode="&#x222b;" horiz-adv-x="1010" 
d="M745 1427q-180 0 -180 -213v-1353q0 -153 -79 -238.5t-218 -85.5q-77 0 -135 23l29 102q44 -18 96 -18q180 0 180 211v1357q0 149 79.5 234.5t219.5 85.5q78 0 133 -25q-18 -57 -28 -100q-44 20 -97 20z" />
    <glyph glyph-name="approxequal" unicode="&#x2248;" 
d="M662 281q-90 0 -179 57t-137 57q-96 0 -156 -116l-61 71q81 146 207 146q80 0 171 -58t139 -59q95 0 155 119l59 -70q-79 -147 -198 -147zM662 705q-90 0 -179 57t-137 57q-97 0 -156 -117l-61 68q80 148 207 148q82 0 172 -58t138 -57q95 0 155 117l59 -68
q-79 -147 -198 -147z" />
    <glyph glyph-name="notequal" unicode="&#x2260;" 
d="M840 338h-418l-111 -254h-96l111 254h-176v98h219l143 326h-362v98h403l111 256h98l-113 -256h191v-98h-234l-141 -326h375v-98z" />
    <glyph glyph-name="lessequal" unicode="&#x2264;" 
d="M840 0h-690v98h690v-98zM840 272l-690 390v59l690 391v-113l-557 -305v-4l557 -305v-113z" />
    <glyph glyph-name="greaterequal" unicode="&#x2265;" 
d="M840 0h-690v98h690v-98zM840 664l-690 -392v113l557 307v2l-557 307v111l690 -389v-59z" />
    <glyph glyph-name="lozenge" unicode="&#x25ca;" horiz-adv-x="1155" 
d="M913 717l-342 575l-344 -575l342 -578zM1034 717l-428 -717h-71l-424 715l424 719h71z" />
    <glyph glyph-name="apple" unicode="&#xf000;" horiz-adv-x="717" 
d="M360 971q104 -1 178 -75t74 -180t-74 -179q-74 -74 -180 -74q-106 -1 -180 75t-74 182t76 179q76 72 180 72z" />
    <glyph glyph-name="pi1" unicode="&#xf006;" horiz-adv-x="1350" 
d="M1133 -14q-111 0 -170.5 68t-59.5 190v678h-446v-658q0 -147 -29 -264h-127q29 108 29 266v656q-112 -6 -213 -48l-37 95q112 55 280 55h891v-102h-221v-668q0 -164 131 -164q28 0 64 14l28 -92q-48 -26 -120 -26z" />
    <glyph glyph-name="fi" unicode="&#xfb01;" horiz-adv-x="1065" 
d="M907 0h-116v944h-431v-944h-116v944h-205l35 94h170v136q0 385 360 385q135 0 258 -41l-33 -95q-122 41 -236 41q-113 0 -173 -70t-60 -239v-117h459l88 25v-1063z" />
    <glyph glyph-name="fl" unicode="&#xfb02;" horiz-adv-x="1042" 
d="M885 0h-117v1432q-92 32 -180 32q-128 0 -178 -71t-50 -238v-117h265l-33 -94h-232v-944h-116v944h-205l35 94h170v136q0 385 350 385q81 0 186 -29l105 29v-1559z" />
    <glyph glyph-name="glyph251" horiz-adv-x="864" 
d="M508 973v352l-313 -352h313zM752 891h-148v-193h-96v193h-424v80l442 499h78v-497h148v-82z" />
    </font>
</defs>
</svg>
